<svg xmlns="http://www.w3.org/2000/svg" viewBox="0 0 512 512"><defs><style>.cls-1{fill:#f0c85c;}.cls-2{fill:#cfa94f;}.cls-3{fill:#fff;}.cls-4{fill:#2b3060;}.cls-5{fill:#334079;}.cls-6{fill:#485786;}.cls-7{fill:#528f73;}.cls-8{fill:#4f5f9c;}.cls-9{fill:#62ab8b;}.cls-10{fill:#44775d;}.cls-11{fill:#ce404a;}.cls-12{fill:#37417d;}</style></defs><title>Artificial Intelligence</title><g id="BULINE"><circle class="cls-1" cx="256" cy="256" r="256"/></g><g id="Icons"><circle class="cls-2" cx="254.88" cy="157.03" r="132.08"/><path class="cls-3" d="M224.21,96.94a7.5,7.5,0,0,1-7.5-7.5V47.61a7.5,7.5,0,1,1,15,0V89.44A7.5,7.5,0,0,1,224.21,96.94Z"/><path class="cls-3" d="M285.37,96.94a7.5,7.5,0,0,1-7.5-7.5V47.61a7.5,7.5,0,0,1,15,0V89.44A7.5,7.5,0,0,1,285.37,96.94Z"/><path class="cls-3" d="M254.88,96.94a7.5,7.5,0,0,1-7.5-7.5V47.61a7.5,7.5,0,0,1,15,0V89.44A7.5,7.5,0,0,1,254.88,96.94Z"/><path class="cls-3" d="M224.21,269.61a7.5,7.5,0,0,1-7.5-7.5V220.27a7.5,7.5,0,0,1,15,0v41.84A7.5,7.5,0,0,1,224.21,269.61Z"/><path class="cls-3" d="M285.37,269.61a7.5,7.5,0,0,1-7.5-7.5V220.27a7.5,7.5,0,1,1,15,0v41.84A7.5,7.5,0,0,1,285.37,269.61Z"/><path class="cls-3" d="M254.88,269.61a7.5,7.5,0,0,1-7.5-7.5V220.27a7.5,7.5,0,1,1,15,0v41.84A7.5,7.5,0,0,1,254.88,269.61Z"/><path class="cls-3" d="M362.13,131.78H320.29a7.5,7.5,0,0,1,0-15h41.84a7.5,7.5,0,0,1,0,15Z"/><path class="cls-3" d="M362.13,192.94H320.29a7.5,7.5,0,0,1,0-15h41.84a7.5,7.5,0,0,1,0,15Z"/><path class="cls-3" d="M362.13,162.44H320.29a7.5,7.5,0,0,1,0-15h41.84a7.5,7.5,0,0,1,0,15Z"/><path class="cls-3" d="M189.46,131.78H147.63a7.5,7.5,0,0,1,0-15h41.83a7.5,7.5,0,0,1,0,15Z"/><path class="cls-3" d="M189.46,192.94H147.63a7.5,7.5,0,0,1,0-15h41.83a7.5,7.5,0,0,1,0,15Z"/><path class="cls-3" d="M189.46,162.44H147.63a7.5,7.5,0,0,1,0-15h41.83a7.5,7.5,0,0,1,0,15Z"/><path class="cls-4" d="M216.91,445.69a38.95,38.95,0,1,1-8.58-24.38A38.95,38.95,0,0,1,216.91,445.69Z"/><path class="cls-5" d="M216.91,445.69a39,39,0,0,1-46.82,38.14,38.94,38.94,0,0,1,30.34-63.32,39.49,39.49,0,0,1,7.9.8A38.74,38.74,0,0,1,216.91,445.69Z"/><path class="cls-6" d="M221.78,427.11H143.32a17.94,17.94,0,0,1-15.94-9.7L62.47,292a18.46,18.46,0,0,1-2.08-8.59l.06-16.54,19.5,0,28.84,0L192,347.11h34.26l4.55,70.42A9,9,0,0,1,221.78,427.11Z"/><path class="cls-7" d="M108.83,133.5V266.87H60.45V133.5a24.19,24.19,0,0,1,33.94-22.14,24.24,24.24,0,0,1,14.44,22.14Z"/><path class="cls-8" d="M221.78,427.11h-59a17.94,17.94,0,0,1-15.94-9.7L82,292a18.46,18.46,0,0,1-2.08-8.59L80,266.89l28.84,0L192,347.11h34.26l4.55,70.42A9,9,0,0,1,221.78,427.11Z"/><path class="cls-9" d="M108.83,133.5V266.87H80V133.5a24.19,24.19,0,0,1,14.44-22.14,24.24,24.24,0,0,1,14.44,22.14Z"/><path class="cls-7" d="M231.38,365.82v52.29a9,9,0,0,1-8.39,9l-.61,0H207.79a26.57,26.57,0,0,1-26.57-26.58V359.86a18.84,18.84,0,0,0-3.94-11.52l-31.17-40.17A24.2,24.2,0,1,1,180.34,274l40.32,57.81A59.41,59.41,0,0,1,231.38,365.82Z"/><path class="cls-9" d="M231.38,365.82v52.29a9,9,0,0,1-8.39,9,26.58,26.58,0,0,1-25.47-26.56V359.86a18.84,18.84,0,0,0-3.94-11.52l-31.17-40.17a24.2,24.2,0,0,1,9-39.89,24,24,0,0,1,9,5.68l40.32,57.81A59.41,59.41,0,0,1,231.38,365.82Z"/><rect class="cls-10" x="60.39" y="198.61" width="48.44" height="10.17"/><path class="cls-11" d="M58.38,208.77h2a0,0,0,0,1,0,0v72.33a0,0,0,0,1,0,0h-2a9.5,9.5,0,0,1-9.5-9.5V218.27A9.5,9.5,0,0,1,58.38,208.77Z"/><path class="cls-4" d="M370,445.69a38.95,38.95,0,1,1-8.58-24.38A38.95,38.95,0,0,1,370,445.69Z"/><path class="cls-5" d="M370,445.69a39,39,0,0,1-46.82,38.14,38.94,38.94,0,0,1,30.34-63.32,39.49,39.49,0,0,1,7.9.8A38.74,38.74,0,0,1,370,445.69Z"/><path class="cls-8" d="M287.22,427.11h78.46a17.94,17.94,0,0,0,15.94-9.7L446.53,292a18.34,18.34,0,0,0,2.08-8.59l-.06-16.54-19.5,0-28.84,0-83.16,80.2H282.79l-4.55,70.42A9,9,0,0,0,287.22,427.11Z"/><path class="cls-9" d="M400.17,133.5V266.87h48.38V133.5a24.19,24.19,0,0,0-33.94-22.14,24.24,24.24,0,0,0-14.44,22.14Z"/><path class="cls-6" d="M287.22,427.11h59a17.94,17.94,0,0,0,15.94-9.7L427,292a18.34,18.34,0,0,0,2.08-8.59l-.06-16.52-28.84,0-83.16,80.2H282.79l-4.55,70.42A9,9,0,0,0,287.22,427.11Z"/><path class="cls-7" d="M400.17,133.5V266.87h28.88V133.5a24.19,24.19,0,0,0-14.44-22.14,24.24,24.24,0,0,0-14.44,22.14Z"/><path class="cls-9" d="M277.62,365.82v52.29a9,9,0,0,0,8.39,9l.61,0h14.59a26.57,26.57,0,0,0,26.57-26.58V359.86a18.84,18.84,0,0,1,3.94-11.52l31.17-40.17A24.2,24.2,0,0,0,328.66,274l-40.32,57.81A59.41,59.41,0,0,0,277.62,365.82Z"/><path class="cls-7" d="M277.62,365.82v52.29a9,9,0,0,0,8.39,9,26.58,26.58,0,0,0,25.47-26.56V359.86a18.84,18.84,0,0,1,3.94-11.52l31.17-40.17a24.2,24.2,0,0,0-9-39.89,24,24,0,0,0-9,5.68l-40.32,57.81A59.41,59.41,0,0,0,277.62,365.82Z"/><rect class="cls-10" x="400.18" y="198.61" width="48.44" height="10.17" transform="translate(848.79 407.38) rotate(-180)"/><path class="cls-11" d="M458.11,208.77h2a0,0,0,0,1,0,0v72.33a0,0,0,0,1,0,0h-2a9.5,9.5,0,0,1-9.5-9.5V218.27a9.5,9.5,0,0,1,9.5-9.5Z" transform="translate(908.74 489.88) rotate(-180)"/><rect class="cls-4" x="187.29" y="89.44" width="135.17" height="135.17" rx="16.46"/><rect class="cls-12" x="202.28" y="104.43" width="105.19" height="105.19" rx="16.46"/><path class="cls-3" d="M247.93,184.5l-2.66-9.28H227.81L225,184.57a4.93,4.93,0,0,1-4.71,3.49h-5.93a4.92,4.92,0,0,1-4.7-6.37l16.16-52.34a9.16,9.16,0,0,1,8.76-6.46h7.65a9.17,9.17,0,0,1,8.75,6.42l16.42,52.36a4.92,4.92,0,0,1-4.7,6.39h-10A4.91,4.91,0,0,1,247.93,184.5ZM231.21,161h10.54l-5.27-18.91Z"/><path class="cls-3" d="M295.38,129.14v52.67a6.26,6.26,0,0,1-6.26,6.25h-7.5a6.25,6.25,0,0,1-6.25-6.25V129.14a6.25,6.25,0,0,1,6.25-6.25h7.5A6.26,6.26,0,0,1,295.38,129.14Z"/></g></svg>