<svg width="512" height="512" viewBox="0 0 512 512" fill="none" xmlns="http://www.w3.org/2000/svg">
<circle cx="256" cy="256" r="256" fill="#0369A1"/>
<path d="M169.636 161.909C173.1 161.909 175.909 159.101 175.909 155.636C175.909 152.172 173.1 149.364 169.636 149.364C166.172 149.364 163.364 152.172 163.364 155.636C163.364 159.101 166.172 161.909 169.636 161.909Z" fill="white"/>
<path d="M194.727 161.909C198.192 161.909 201 159.101 201 155.636C201 152.172 198.192 149.364 194.727 149.364C191.263 149.364 188.455 152.172 188.455 155.636C188.455 159.101 191.263 161.909 194.727 161.909Z" fill="white"/>
<path d="M288.818 368.909H287.664C285.067 361.627 278.167 356.364 270 356.364H257.454V337.546C257.454 334.083 254.644 331.273 251.182 331.273C247.719 331.273 244.909 334.083 244.909 337.546V356.364H232.364C224.196 356.364 217.296 361.627 214.7 368.909H175.909C172.447 368.909 169.637 371.72 169.637 375.182C169.637 378.644 172.447 381.455 175.909 381.455H214.7C217.296 388.737 224.196 394 232.364 394H270C278.167 394 285.067 388.737 287.664 381.455H288.818C292.281 381.455 295.091 378.644 295.091 375.182C295.091 371.72 292.281 368.909 288.818 368.909ZM270 381.455H232.364C228.907 381.455 226.091 378.638 226.091 375.182C226.091 371.726 228.908 368.909 232.364 368.909H270C273.456 368.909 276.272 371.726 276.272 375.182C276.272 378.638 273.456 381.455 270 381.455Z" fill="white"/>
<path d="M244.909 149.364C241.447 149.364 238.637 152.174 238.637 155.636C238.637 159.099 241.447 161.909 244.909 161.909H332.727C336.19 161.909 339 159.099 339 155.636C339 152.174 336.19 149.364 332.727 149.364H244.909Z" fill="white"/>
<path d="M169.636 287.363C173.1 287.363 175.909 284.555 175.909 281.091C175.909 277.626 173.1 274.818 169.636 274.818C166.172 274.818 163.364 277.626 163.364 281.091C163.364 284.555 166.172 287.363 169.636 287.363Z" fill="white"/>
<path d="M194.727 287.363C198.192 287.363 201 284.555 201 281.091C201 277.626 198.192 274.818 194.727 274.818C191.263 274.818 188.455 277.626 188.455 281.091C188.455 284.555 191.263 287.363 194.727 287.363Z" fill="white"/>
<path d="M244.909 274.818C241.447 274.818 238.637 277.628 238.637 281.091C238.637 284.553 241.447 287.363 244.909 287.363H307.637C311.099 287.363 313.909 284.553 313.909 281.091C313.909 277.628 311.099 274.818 307.637 274.818H244.909Z" fill="white"/>
<path d="M169.636 224.636C173.1 224.636 175.909 221.828 175.909 218.364C175.909 214.899 173.1 212.091 169.636 212.091C166.172 212.091 163.364 214.899 163.364 218.364C163.364 221.828 166.172 224.636 169.636 224.636Z" fill="white"/>
<path d="M194.727 224.636C198.192 224.636 201 221.828 201 218.364C201 214.899 198.192 212.091 194.727 212.091C191.263 212.091 188.455 214.899 188.455 218.364C188.455 221.828 191.263 224.636 194.727 224.636Z" fill="white"/>
<path d="M332.727 224.636C336.19 224.636 339 221.826 339 218.364C339 214.901 336.19 212.091 332.727 212.091H244.909C241.447 212.091 238.637 214.901 238.637 218.364C238.637 221.826 241.447 224.636 244.909 224.636H332.727Z" fill="white"/>
<path d="M288.818 306.182H150.818C147.362 306.182 144.546 303.365 144.546 299.909V256.006L364.091 256C367.553 256 370.363 253.19 370.363 249.727V187C370.363 185.338 369.704 183.738 368.526 182.565C367.346 181.392 365.753 180.727 364.091 180.727L144.545 180.734V136.825C144.545 133.368 147.362 130.552 150.818 130.552L351.545 130.546C355.002 130.546 357.818 133.362 357.818 136.818V161.909C357.818 165.371 360.628 168.181 364.09 168.181C367.553 168.181 370.363 165.371 370.363 161.909V136.818C370.364 126.443 361.92 118 351.546 118L150.818 118.006C140.443 118.006 132 126.449 132 136.825V187V187.006V224.637C132 228.099 134.81 230.909 138.273 230.909C141.735 230.909 144.545 228.099 144.545 224.637V193.28L357.818 193.273V243.455L138.272 243.461C134.81 243.461 132 246.271 132 249.733V299.909C132 310.284 140.443 318.727 150.818 318.727H288.818C292.281 318.727 295.091 315.917 295.091 312.454C295.091 308.992 292.281 306.182 288.818 306.182Z" fill="white"/>
<path d="M389.182 306.182V299.909C389.182 282.616 375.112 268.546 357.818 268.546C340.524 268.546 326.454 282.615 326.454 299.909V306.182C316.079 306.182 307.636 314.625 307.636 325V375.182C307.636 385.557 316.08 394 326.454 394H389.182C399.557 394 408 385.557 408 375.182V325C408 314.625 399.557 306.182 389.182 306.182ZM339 299.909C339 289.528 347.443 281.091 357.818 281.091C368.193 281.091 376.636 289.535 376.636 299.909V306.182H339V299.909ZM395.454 375.182C395.454 378.638 392.638 381.454 389.182 381.454H326.454C322.998 381.454 320.182 378.638 320.182 375.182V325C320.182 321.544 322.998 318.728 326.454 318.728H389.182C392.638 318.728 395.454 321.544 395.454 325V375.182Z" fill="white"/>
<path d="M357.818 337.546C354.356 337.546 351.546 340.356 351.546 343.818V356.364C351.546 359.826 354.356 362.636 357.818 362.636C361.281 362.636 364.091 359.826 364.091 356.364V343.818C364.091 340.356 361.281 337.546 357.818 337.546Z" fill="white"/>
</svg>
