<?xml version="1.0" encoding="utf-8"?>
<!-- Generator: Adobe Illustrator 19.2.0, SVG Export Plug-In . SVG Version: 6.00 Build 0)  -->
<svg version="1.1" id="Layer_1" xmlns="http://www.w3.org/2000/svg" xmlns:xlink="http://www.w3.org/1999/xlink" x="0px" y="0px"
	 viewBox="0 0 500 500" style="enable-background:new 0 0 500 500;" xml:space="preserve">
<style type="text/css">
	.st0{fill:#ECF4F7;}
	.st1{fill:#1C1D21;}
	.st2{fill:#83E1E5;}
	.st3{fill:#AAB1BA;}
	.st4{fill:none;stroke:#1C1D21;stroke-width:10;stroke-linecap:round;stroke-linejoin:round;stroke-miterlimit:10;}
	.st5{fill:#FDDF7F;}
	.st6{fill:#FFFFFF;}
</style>
<g>
	<g>
		<g>
			<path class="st2" d="M250,460c-87.3,0-158.3-71-158.3-158.3s71-158.3,158.3-158.3c87.3,0,158.3,71,158.3,158.3S337.3,460,250,460
				z"/>
		</g>
	</g>
	<g>
		<g>
			<g>
				<path class="st1" d="M78.4,217.6c-0.8,0-1.6-0.2-2.3-0.6c-2.4-1.3-3.4-4.3-2.1-6.7c18.5-35.6,47.1-64.5,82.5-83.5
					c2.4-1.3,5.5-0.4,6.8,2c1.3,2.4,0.4,5.5-2,6.8c-33.6,18-60.7,45.5-78.3,79.3C81.9,216.6,80.2,217.6,78.4,217.6z"/>
			</g>
		</g>
		<g>
			<g>
				<path class="st1" d="M250,500c-109.4,0-198.3-89-198.3-198.3c0-16.2,2-32.3,5.8-47.8c0.7-2.7,3.4-4.3,6.1-3.7
					c2.7,0.7,4.3,3.4,3.7,6.1c-3.7,14.8-5.5,30-5.5,45.4C61.7,405.5,146.2,490,250,490s188.3-84.5,188.3-188.3
					c0-99.1-77.4-181.7-176.2-187.9c-4-0.3-8.1-0.4-12.1-0.4c-2.8,0-5-2.2-5-5c0-2.8,2.2-5,5-5c4.3,0,8.6,0.1,12.8,0.4
					c50.2,3.2,97,25.2,131.6,62c34.8,36.9,53.9,85.2,53.9,136C448.3,411,359.4,500,250,500z"/>
			</g>
		</g>
		<g>
			<g>
				<path class="st1" d="M210.1,117.5c-2.3,0-4.4-1.6-4.9-4c-0.6-2.7,1.2-5.4,3.9-5.9c6.4-1.3,13-2.4,19.6-3.1
					c2.7-0.3,5.2,1.7,5.5,4.4c0.3,2.7-1.7,5.2-4.4,5.5c-6.2,0.7-12.5,1.7-18.6,2.9C210.8,117.4,210.5,117.5,210.1,117.5z"/>
			</g>
		</g>
	</g>
	<g>
		<g>
			<path class="st1" d="M274.8,114.9c-0.2,0-0.4,0-0.6,0c-16-2-32.4-2-48.4,0c-1.4,0.2-2.9-0.3-3.9-1.2c-1.1-0.9-1.7-2.3-1.7-3.8
				V70.7c0-2.8,2.2-5,5-5h49.7c2.8,0,5,2.2,5,5v39.2c0,1.4-0.6,2.8-1.7,3.8C277.2,114.5,276,114.9,274.8,114.9z M230.2,75.7v28.6
				c13.2-1.3,26.5-1.3,39.7,0V75.7H230.2z"/>
		</g>
	</g>
	<g>
		<g>
			<path class="st3" d="M287.3,5h-74.7c-11,0-20,9-20,20v25.7c0,11,9,20,20,20h74.7c11,0,20-9,20-20V25C307.3,14,298.4,5,287.3,5z"
				/>
		</g>
	</g>
	<g>
		<g>
			<path class="st1" d="M287.3,75.7h-74.7c-13.8,0-25-11.2-25-25V25c0-13.8,11.2-25,25-25h74.7c13.8,0,25,11.2,25,25v25.7
				C312.3,64.5,301.1,75.7,287.3,75.7z M212.7,10c-8.3,0-15,6.7-15,15v25.7c0,8.3,6.7,15,15,15h74.7c8.3,0,15-6.7,15-15V25
				c0-8.3-6.7-15-15-15H212.7z"/>
		</g>
	</g>
	<g>
		<g>
			<g>
				<g>
					<path class="st1" d="M250,153.8c-2.8,0-5-2.2-5-5v-11.7c0-2.8,2.2-5,5-5c2.8,0,5,2.2,5,5v11.7C255,151.5,252.8,153.8,250,153.8
						z"/>
				</g>
			</g>
			<g>
				<g>
					<path class="st1" d="M250,471.3c-2.8,0-5-2.2-5-5v-11.7c0-2.8,2.2-5,5-5c2.8,0,5,2.2,5,5v11.7C255,469,252.8,471.3,250,471.3z"
						/>
				</g>
			</g>
		</g>
		<g>
			<g>
				<g>
					<path class="st1" d="M358.1,198.5c-1.3,0-2.6-0.5-3.5-1.5c-2-2-2-5.1,0-7.1l8.3-8.2c2-2,5.1-2,7.1,0c2,2,2,5.1,0,7.1l-8.3,8.2
						C360.7,198.1,359.4,198.5,358.1,198.5z"/>
				</g>
			</g>
			<g>
				<g>
					<path class="st1" d="M133.6,423c-1.3,0-2.6-0.5-3.5-1.5c-2-2-2-5.1,0-7.1l8.2-8.2c2-2,5.1-2,7.1,0c2,2,2,5.1,0,7.1l-8.2,8.2
						C136.2,422.6,134.9,423,133.6,423z"/>
				</g>
			</g>
		</g>
		<g>
			<g>
				<g>
					<path class="st1" d="M414.6,306.7h-11.7c-2.8,0-5-2.2-5-5c0-2.8,2.2-5,5-5h11.7c2.8,0,5,2.2,5,5
						C419.6,304.4,417.3,306.7,414.6,306.7z"/>
				</g>
			</g>
			<g>
				<g>
					<path class="st1" d="M97.1,306.7H85.4c-2.8,0-5-2.2-5-5c0-2.8,2.2-5,5-5h11.7c2.8,0,5,2.2,5,5
						C102.1,304.4,99.8,306.7,97.1,306.7z"/>
				</g>
			</g>
		</g>
		<g>
			<g>
				<g>
					<path class="st1" d="M366.4,423c-1.3,0-2.6-0.5-3.5-1.5l-8.3-8.2c-2-2-2-5.1,0-7.1c2-2,5.1-2,7.1,0l8.3,8.2c2,2,2,5.1,0,7.1
						C368.9,422.6,367.7,423,366.4,423z"/>
				</g>
			</g>
			<g>
				<g>
					<path class="st1" d="M141.9,198.5c-1.3,0-2.6-0.5-3.5-1.5l-8.2-8.2c-2-2-2-5.1,0-7.1c2-2,5.1-2,7.1,0l8.2,8.2c2,2,2,5.1,0,7.1
						C144.4,198.1,143.2,198.5,141.9,198.5z"/>
				</g>
			</g>
		</g>
	</g>
	<g>
		<g>
			<path class="st1" d="M250,247.5c-2.8,0-5-2.2-5-5v-57.2c0-2.8,2.2-5,5-5c2.8,0,5,2.2,5,5v57.2C255,245.3,252.8,247.5,250,247.5z"
				/>
		</g>
	</g>
	<g>
		<g>
			<path class="st1" d="M190.8,306.7h-46.3c-2.8,0-5-2.2-5-5c0-2.8,2.2-5,5-5h46.3c2.8,0,5,2.2,5,5
				C195.8,304.4,193.6,306.7,190.8,306.7z"/>
		</g>
	</g>
	<g>
		<g>
			<g>
				<path class="st1" d="M220.7,75.7c-2.8,0-5-2.2-5-5V5c0-2.8,2.2-5,5-5s5,2.2,5,5v65.7C225.7,73.4,223.4,75.7,220.7,75.7z"/>
			</g>
		</g>
		<g>
			<g>
				<path class="st1" d="M250,75.7c-2.8,0-5-2.2-5-5V5c0-2.8,2.2-5,5-5c2.8,0,5,2.2,5,5v65.7C255,73.4,252.8,75.7,250,75.7z"/>
			</g>
		</g>
		<g>
			<g>
				<path class="st1" d="M279.3,75.7c-2.8,0-5-2.2-5-5V5c0-2.8,2.2-5,5-5c2.8,0,5,2.2,5,5v65.7C284.3,73.4,282.1,75.7,279.3,75.7z"
					/>
			</g>
		</g>
	</g>
	<g>
		<g>
			<path class="st5" d="M286.1,250.3l-5.4,5.4c-2.3,2.3-5.7,2.9-8.6,1.5c-2-1-4.1-1.9-6.2-2.6c-3-1-5.1-3.9-5.1-7.1l0-7.7
				c0-4.2-3.4-7.6-7.6-7.6h-6.5c-4.2,0-7.6,3.4-7.6,7.6l0,7.7c0,3.2-2,6.1-5.1,7.1c-2.1,0.7-4.2,1.6-6.2,2.6
				c-2.9,1.4-6.3,0.8-8.6-1.5l-5.4-5.4c-3-3-7.7-3-10.7,0l-4.6,4.6c-3,3-3,7.7,0,10.7l5.4,5.4c2.3,2.3,2.9,5.7,1.5,8.6
				c-1,2-1.9,4.1-2.6,6.2c-1,3-3.9,5.1-7.1,5.1l-7.7,0c-4.2,0-7.6,3.4-7.6,7.6v6.5c0,4.2,3.4,7.6,7.6,7.6h7.7c3.2,0,6.1,2,7.1,5.1
				c0.7,2.1,1.6,4.2,2.6,6.2c1.4,2.9,0.8,6.3-1.5,8.6l-5.4,5.4c-3,3-3,7.7,0,10.7l4.6,4.6c3,3,7.7,3,10.7,0l5.4-5.4
				c2.3-2.3,5.7-2.9,8.6-1.5c2,1,4.1,1.9,6.2,2.6c3,1,5.1,3.9,5.1,7.1v7.7c0,4.2,3.4,7.6,7.6,7.6h6.5c4.2,0,7.6-3.4,7.6-7.6l0-7.7
				c0-3.2,2-6.1,5.1-7.1c2.1-0.7,4.2-1.6,6.2-2.6c2.9-1.4,6.3-0.8,8.6,1.5l5.4,5.4c3,3,7.7,3,10.7,0l4.6-4.6c3-3,3-7.7,0-10.7
				l-5.4-5.4c-2.3-2.3-2.9-5.7-1.5-8.6c1-2,1.9-4.1,2.6-6.2c1-3,3.9-5.1,7.1-5.1l7.7,0c4.2,0,7.6-3.4,7.6-7.6v-6.5
				c0-4.2-3.4-7.6-7.6-7.6h-7.7c-3.2,0-6.1-2-7.1-5.1c-0.7-2.1-1.6-4.2-2.6-6.2c-1.4-2.9-0.8-6.3,1.5-8.6l5.4-5.4c3-3,3-7.7,0-10.7
				l-4.6-4.6C293.8,247.3,289.1,247.3,286.1,250.3z M266.3,318c-9,9-23.6,9-32.6,0c-9-9-9-23.6,0-32.6c9-9,23.6-9,32.6,0
				C275.3,294.4,275.3,309,266.3,318z"/>
		</g>
	</g>
	<g>
		<g>
			<path class="st1" d="M253.2,376.1h-6.5c-6.9,0-12.6-5.6-12.6-12.6v-7.7c0-1.1-0.7-2.1-1.6-2.4c-2.3-0.8-4.6-1.7-6.9-2.8
				c-0.9-0.4-2.1-0.2-2.8,0.5l-5.4,5.4c-2.4,2.4-5.5,3.7-8.9,3.7c-3.4,0-6.5-1.3-8.9-3.7l-4.6-4.6c-4.9-4.9-4.9-12.9,0-17.8l5.4-5.4
				c0.8-0.8,1-1.9,0.5-2.8c-1.1-2.2-2.1-4.5-2.8-6.9c-0.3-1-1.3-1.6-2.4-1.6h-7.7c-6.9,0-12.6-5.6-12.6-12.6v-6.5
				c0-6.9,5.6-12.6,12.6-12.6l7.7,0c1.1,0,2.1-0.7,2.4-1.6c0.8-2.3,1.7-4.6,2.8-6.9c0.4-0.9,0.2-2.1-0.5-2.8l-5.4-5.4
				c-4.9-4.9-4.9-12.9,0-17.8l4.6-4.6c2.4-2.4,5.5-3.7,8.9-3.7c3.4,0,6.5,1.3,8.9,3.7l5.4,5.4c0.8,0.8,1.9,1,2.8,0.5
				c2.2-1.1,4.5-2.1,6.9-2.8c1-0.3,1.6-1.3,1.6-2.4v-7.7c0-6.9,5.6-12.6,12.6-12.6h6.5c6.9,0,12.6,5.6,12.6,12.6l0,7.7
				c0,1.1,0.7,2.1,1.6,2.4c2.3,0.8,4.6,1.7,6.9,2.8c0.9,0.4,2.1,0.2,2.8-0.5l5.4-5.4c4.9-4.9,12.9-4.9,17.8,0l4.6,4.6
				c2.4,2.4,3.7,5.5,3.7,8.9s-1.3,6.5-3.7,8.9l-5.4,5.4c-0.8,0.8-1,1.9-0.5,2.8c1.1,2.2,2,4.5,2.8,6.9c0.3,1,1.3,1.6,2.4,1.6h7.7
				c6.9,0,12.6,5.6,12.6,12.6v6.5c0,3.4-1.3,6.5-3.7,8.9c-2.4,2.4-5.5,3.7-8.9,3.7l0,0l-7.7,0c-1.1,0-2.1,0.7-2.4,1.6
				c-0.8,2.3-1.7,4.6-2.8,6.9c-0.4,0.9-0.2,2.1,0.5,2.8l5.4,5.4c2.4,2.4,3.7,5.5,3.7,8.9c0,3.4-1.3,6.5-3.7,8.9l-4.6,4.6
				c-4.9,4.9-12.9,4.9-17.8,0l-5.4-5.4c-0.8-0.8-1.9-1-2.8-0.5c-2.2,1.1-4.5,2.1-6.9,2.8c-1,0.3-1.6,1.3-1.6,2.4l0,7.7
				C265.8,370.5,260.2,376.1,253.2,376.1z M224.7,340.4c1.9,0,3.7,0.4,5.5,1.3c1.8,0.9,3.7,1.7,5.6,2.3c5.1,1.7,8.5,6.5,8.5,11.9
				v7.7c0,1.4,1.2,2.6,2.6,2.6h6.5c1.4,0,2.6-1.2,2.6-2.6l0-7.7c0-5.4,3.4-10.2,8.5-11.9c1.9-0.6,3.8-1.4,5.6-2.3
				c4.8-2.4,10.5-1.4,14.4,2.4l5.4,5.4c1,1,2.6,1,3.6,0l4.6-4.6c0.5-0.5,0.8-1.1,0.8-1.8c0-0.7-0.3-1.3-0.8-1.8l-5.4-5.4
				c-3.8-3.8-4.8-9.6-2.4-14.4c0.9-1.8,1.7-3.7,2.3-5.6c1.7-5.1,6.5-8.5,11.9-8.5l7.7,0c0.7,0,1.3-0.3,1.8-0.8
				c0.5-0.5,0.8-1.1,0.8-1.8v-6.5c0-1.4-1.2-2.6-2.6-2.6h-7.7c-5.4,0-10.2-3.4-11.9-8.5c-0.6-1.9-1.4-3.8-2.3-5.6
				c-2.4-4.8-1.4-10.5,2.4-14.4l5.4-5.4c0.5-0.5,0.8-1.1,0.8-1.8c0-0.7-0.3-1.3-0.8-1.8l-4.6-4.6c-1-1-2.6-1-3.6,0l-5.4,5.4
				c-3.8,3.8-9.6,4.8-14.4,2.4c-1.8-0.9-3.7-1.7-5.6-2.3c-5.1-1.7-8.5-6.5-8.5-11.9l0-7.7c0-1.4-1.2-2.6-2.6-2.6h-6.5
				c-1.4,0-2.6,1.2-2.6,2.6v7.7c0,5.4-3.4,10.2-8.5,11.9c-1.9,0.6-3.8,1.4-5.6,2.3c-4.8,2.4-10.5,1.4-14.4-2.4l-5.4-5.4
				c-1-1-2.7-1-3.6,0l-4.6,4.6c-1,1-1,2.6,0,3.6l5.4,5.4c3.8,3.8,4.8,9.6,2.4,14.4c-0.9,1.8-1.7,3.7-2.3,5.6
				c-1.7,5.1-6.5,8.5-11.9,8.5l-7.7,0c-1.4,0-2.6,1.2-2.6,2.6v6.5c0,1.4,1.2,2.6,2.6,2.6h7.7c5.4,0,10.2,3.4,11.9,8.5
				c0.6,1.9,1.4,3.8,2.3,5.6c2.4,4.8,1.4,10.5-2.4,14.4l-5.4,5.4c-1,1-1,2.6,0,3.6l4.6,4.6c1,1,2.7,1,3.6,0l5.4-5.4
				C218.2,341.7,221.4,340.4,224.7,340.4z M250,329.7c-7.2,0-14.4-2.7-19.8-8.2c-5.3-5.3-8.2-12.3-8.2-19.8c0-7.5,2.9-14.5,8.2-19.8
				c10.9-10.9,28.7-10.9,39.7,0c5.3,5.3,8.2,12.3,8.2,19.8c0,7.5-2.9,14.5-8.2,19.8l0,0l0,0C264.4,327,257.2,329.7,250,329.7z
				 M250,283.6c-4.6,0-9.3,1.8-12.8,5.3c-3.4,3.4-5.3,7.9-5.3,12.8c0,4.8,1.9,9.4,5.3,12.8c7,7,18.5,7,25.5,0l0,0
				c3.4-3.4,5.3-7.9,5.3-12.8c0-4.8-1.9-9.4-5.3-12.8C259.3,285.4,254.6,283.6,250,283.6z"/>
		</g>
	</g>
</g>
</svg>
