<?xml version="1.0" encoding="utf-8"?>
<!-- Generator: Adobe Illustrator 24.0.0, SVG Export Plug-In . SVG Version: 6.00 Build 0)  -->
<svg version="1.1" xmlns="http://www.w3.org/2000/svg" xmlns:xlink="http://www.w3.org/1999/xlink" x="0px" y="0px"
	 viewBox="0 0 256 256" enable-background="new 0 0 256 256" xml:space="preserve">
<g id="Layer_2">
</g>
<g id="Layer_1">
	<g>
	</g>
	<g>
		<path fill="#AFAFAF" d="M228.81,156.95l11.361,6.553c2.103,1.213,3.036,3.763,2.208,6.045
			c-4.907,13.52-12.147,25.924-21.227,36.723c-1.561,1.856-4.234,2.32-6.334,1.107l-11.363-6.562
			c-13.449,13.927-30.721,24.149-50.122,28.961v13.111c0,2.426-1.739,4.51-4.128,4.932c-13.952,2.462-28.436,2.466-42.41,0
			c-2.389-0.422-4.128-2.506-4.128-4.932v-13.111c-19.401-4.812-36.674-15.034-50.122-28.961l-11.363,6.562
			c-2.1,1.213-4.773,0.749-6.334-1.107c-9.079-10.799-16.32-23.202-21.227-36.723c-0.828-2.282,0.106-4.832,2.208-6.045
			l11.361-6.553c-5.373-18.705-5.438-38.968,0-57.9l-11.361-6.553c-2.103-1.213-3.036-3.763-2.208-6.045
			c4.907-13.52,12.147-25.924,21.227-36.723c1.561-1.856,4.234-2.32,6.334-1.107l11.363,6.562
			c13.449-13.927,30.721-24.149,50.122-28.961V13.112c0-2.426,1.739-4.51,4.128-4.932c13.949-2.462,28.436-2.466,42.41,0
			c2.389,0.422,4.128,2.506,4.128,4.932v13.111c19.401,4.812,36.674,15.034,50.122,28.961l11.363-6.562
			c2.1-1.213,4.773-0.749,6.334,1.107c9.079,10.799,16.32,23.202,21.227,36.723c0.828,2.282-0.106,4.832-2.208,6.045L228.81,99.05
			C234.182,117.755,234.247,138.018,228.81,156.95z"/>
		<circle fill="#F0C020" cx="128" cy="128" r="78.576"/>
		<g>
			<g>
				<path fill="#F8E5B0" d="M128.001,199.044c-14.168,0-27.835-4.137-39.525-11.963c-1.147-0.768-1.455-2.32-0.687-3.468
					c0.768-1.148,2.322-1.454,3.468-0.687c10.864,7.272,23.57,11.117,36.744,11.117c36.557,0,66.043-29.479,66.043-66.045
					c0-17.669-6.862-34.262-19.321-46.722c-0.977-0.977-0.977-2.559,0-3.535s2.559-0.977,3.535,0
					c13.404,13.404,20.786,31.252,20.786,50.257C199.044,167.321,167.329,199.044,128.001,199.044z M80.315,180.707
					c-0.869-0.787-1.734-1.61-2.572-2.448c-0.977-0.976-0.978-2.559-0.002-3.535c0.975-0.979,2.557-0.978,3.535-0.002
					c0.781,0.78,1.588,1.547,2.396,2.28c1.023,0.927,1.101,2.508,0.174,3.531C82.921,181.557,81.338,181.634,80.315,180.707z"/>
			</g>
			<g>
				<path fill="#EFEFEF" d="M127.995,223.75c-19.91,0-38.982-6.04-55.158-17.468c-1.128-0.797-1.396-2.356-0.6-3.484
					s2.356-1.396,3.484-0.6c15.327,10.828,33.403,16.552,52.273,16.552c0.002,0,0.003,0,0.005,0c50.156,0,90.75-40.586,90.75-90.75
					c0-24.241-9.439-47.03-26.58-64.17c-0.977-0.976-0.977-2.559,0-3.535s2.559-0.977,3.535,0
					C213.79,78.379,223.75,102.424,223.75,128c0,52.919-42.824,95.75-95.75,95.75C127.999,223.75,127.996,223.75,127.995,223.75z
					 M64.782,199.919c-1.536-1.354-3.046-2.771-4.487-4.214c-0.977-0.977-0.977-2.559,0-3.535s2.559-0.977,3.535,0
					c1.368,1.368,2.801,2.713,4.259,3.998c1.035,0.912,1.135,2.492,0.223,3.528C67.402,200.728,65.823,200.834,64.782,199.919z"/>
			</g>
			<path d="M149.64,5.72c-14.18-2.51-29.09-2.51-43.28,0c-3.59,0.63-6.189,3.74-6.189,7.39V24.29c-4.94,1.319-9.84,3.01-14.55,5.04
				c-1.271,0.55-1.86,2.02-1.311,3.29c0.53,1.229,2.04,1.84,3.28,1.31c5.07-2.18,10.34-3.96,15.68-5.28
				c1.12-0.279,1.9-1.279,1.9-2.43v-13.11c-0.01-1.22,0.86-2.26,2.06-2.47c13.61-2.399,27.94-2.399,41.54,0
				c1.2,0.21,2.061,1.25,2.061,2.47v13.11c0,1.15,0.779,2.15,1.899,2.43C171.33,33.27,188.25,43.04,201.66,56.92
				c0.77,0.8,2.08,0.99,3.05,0.43l11.359-6.56c1.036-0.611,2.385-0.383,3.171,0.55c9.029,10.74,16.029,22.84,20.79,35.96
				c0.429,1.207-0.109,2.459-1.12,3.03l-11.351,6.55c-1,0.58-1.47,1.75-1.149,2.86c2.62,9.149,3.949,18.659,3.949,28.26
				c0,9.6-1.329,19.109-3.949,28.26c-0.32,1.1,0.149,2.28,1.149,2.85l11.36,6.561c0.983,0.561,1.545,1.799,1.1,3.04
				c-4.75,13.109-11.75,25.2-20.779,35.95c-0.75,0.892-2.089,1.174-3.171,0.55l-11.359-6.561c-0.97-0.56-2.28-0.369-3.05,0.431
				c-13.41,13.88-30.33,23.649-48.931,28.27c-1.12,0.28-1.899,1.271-1.899,2.431v13.109c0,1.22-0.86,2.26-2.061,2.47
				c-13.58,2.391-27.899,2.4-41.54,0c-1.199-0.21-2.069-1.25-2.06-2.47V229.78c0-1.16-0.78-2.15-1.9-2.431
				c-18.6-4.62-35.52-14.39-48.93-28.27c-0.771-0.8-2.08-0.99-3.05-0.431l-11.36,6.561c-1.119,0.647-2.446,0.312-3.17-0.55
				c-9.03-10.74-16.03-22.841-20.79-35.971c-0.425-1.192,0.089-2.444,1.11-3.02l11.359-6.561c1-0.569,1.471-1.739,1.15-2.85
				c-2.62-9.14-3.96-18.65-3.96-28.26c0-9.62,1.34-19.13,3.96-28.26c0.32-1.11-0.15-2.28-1.15-2.86L17.08,90.33
				c-1.08-0.61-1.52-1.938-1.11-3.011c4.76-13.14,11.76-25.239,20.79-35.979c0.763-0.927,2.112-1.159,3.17-0.56l11.36,6.569
				c0.97,0.561,2.279,0.37,3.05-0.43c4.9-5.07,10.34-9.65,16.17-13.62c1.14-0.77,1.43-2.33,0.66-3.47
				c-0.75-1.101-2.37-1.41-3.48-0.66c-5.56,3.78-10.8,8.12-15.569,12.88l-9.69-5.59c-3.024-1.767-7.081-1.216-9.5,1.66
				c-9.41,11.199-16.7,23.81-21.66,37.479c-1.239,3.35,0.13,7.223,3.311,9.061l9.68,5.59c-2.4,9-3.62,18.33-3.62,27.75
				c0,9.399,1.22,18.74,3.62,27.75l-9.68,5.59c-3.087,1.783-4.574,5.562-3.311,9.06c4.96,13.67,12.25,26.28,21.66,37.48
				c2.367,2.797,6.367,3.475,9.5,1.66l9.69-5.59c13.34,13.319,29.949,22.92,48.05,27.76v11.18c0,3.65,2.6,6.75,6.189,7.391
				c13.72,2.412,28.538,2.599,43.28,0c3.59-0.641,6.19-3.74,6.19-7.391v-11.18c18.1-4.84,34.71-14.44,48.05-27.76l9.689,5.59
				c3.051,1.781,7.093,1.192,9.49-1.66c9.42-11.2,16.71-23.811,21.67-37.48c1.258-3.599-0.278-7.322-3.31-9.06l-9.68-5.59
				c2.399-9.01,3.619-18.351,3.619-27.75c0-9.41-1.22-18.75-3.619-27.75l9.68-5.59c3.042-1.758,4.563-5.514,3.31-9.061
				c-4.96-13.67-12.25-26.28-21.67-37.479c-2.349-2.813-6.373-3.464-9.49-1.66l-9.689,5.59c-13.34-13.32-29.95-22.92-48.05-27.76
				V13.109C155.83,9.46,153.229,6.35,149.64,5.72z"/>
			<path d="M78.83,38.21c0,0,0-0.01,0.01-0.01c1.2-0.67,1.64-2.181,0.97-3.391c-0.63-1.16-2.2-1.63-3.37-0.99c-0.01,0-0.02,0-0.02,0
				c-1.21,0.671-1.65,2.19-0.99,3.4C76.082,38.403,77.577,38.888,78.83,38.21z"/>
			<path d="M167.62,192.96c-1.181,0.72-1.551,2.26-0.83,3.439c0.726,1.21,2.298,1.52,3.42,0.83c0.01,0,0.01,0,0.02,0
				c1.139-0.71,1.565-2.227,0.82-3.439C170.303,192.573,168.766,192.253,167.62,192.96z"/>
			<path d="M46.92,128c0,44.57,36.081,81.069,81.08,81.069h0.02c11.511,0,22.641-2.359,33.08-7.039c1.26-0.561,1.82-2.04,1.26-3.301
				c-0.55-1.22-2.079-1.81-3.3-1.26c-9.79,4.38-20.24,6.6-31.06,6.61c-42.132-0.022-76.08-34.116-76.08-76.08
				c0-41.964,33.944-76.06,76.08-76.08c42.072,0.02,76.058,34.03,76.08,76.08c0,23.21-10.41,44.859-28.55,59.399
				c-1.07,0.86-1.24,2.44-0.381,3.521c0.83,1.03,2.471,1.21,3.511,0.38c18.867-15.106,30.42-38.134,30.42-63.3
				c0-44.769-36.292-81.08-81.08-81.08C83.238,46.92,46.92,83.208,46.92,128z"/>
			<path d="M133.43,143.01c28.825-25.77,3.512-3.152,31.468-28.131l-0.738,15.751c-0.063,1.433,1.091,2.62,2.5,2.62
				c1.34,0,2.439-1.05,2.5-2.391l1.02-21.689c0.062-1.341-0.988-2.556-2.39-2.62l-21.69-1.02c-1.38-0.07-2.56,1.01-2.62,2.38
				c-0.062,1.419,1.043,2.559,2.38,2.62l15.592,0.73c-23.669,21.138-0.466,0.416-29.592,26.439l-13.35-13.431
				c-0.9-0.899-2.45-0.96-3.41-0.13L82.7,152.239V98.28c0-1.381-1.12-2.5-2.5-2.5c-1.37,0-2.49,1.119-2.5,2.489v0.011v59.329
				c0,1.894,1.657,2.953,3.197,2.5h29.973c1.37,0,2.5-1.119,2.5-2.5c0-1.369-1.13-2.5-2.5-2.5H87.026l29.583-25.659l13.381,13.449
				C130.89,143.819,132.47,143.859,133.43,143.01z"/>
			<path d="M118.37,157.609c0,1.381,1.12,2.5,2.5,2.5c1.37,0,2.489-1.119,2.489-2.5c0-1.369-1.119-2.5-2.489-2.5
				C119.49,155.109,118.37,156.24,118.37,157.609z"/>
			<path d="M178.3,157.609c0-1.369-1.12-2.5-2.5-2.5h-44.93c-1.38,0-2.5,1.131-2.5,2.5c0,1.381,1.12,2.5,2.5,2.5h44.93
				C177.18,160.109,178.3,158.99,178.3,157.609z"/>
		</g>
	</g>
</g>
</svg>
