<svg width="512" height="512" viewBox="0 0 512 512" fill="none" xmlns="http://www.w3.org/2000/svg">
<circle cx="256" cy="256" r="256" fill="#D35A5A"/>
<path d="M365.433 168.584C353.923 173.671 328.889 182.866 298.328 182.866C250.802 182.866 234.96 165.295 171.591 165.295V297.07C234.96 297.07 250.801 314.64 298.328 314.64C330.366 314.64 356.33 304.535 367.006 299.651C370.242 298.171 372.258 295.129 372.258 291.806V172.549C372.258 169.31 368.608 167.182 365.433 168.584Z" fill="#FF507D"/>
<path d="M367.006 286.474C356.33 291.358 330.365 301.463 298.328 301.463C281.259 301.463 268.272 299.198 255.702 296.295C217.478 287.468 190.702 255.843 190.702 219.611V165.887C184.819 165.514 178.502 165.295 171.591 165.295V297.07C178.502 297.07 184.819 297.289 190.702 297.661C238.764 300.703 255.985 314.639 298.328 314.639C330.364 314.639 356.327 304.535 367.005 299.651C370.241 298.171 372.258 295.129 372.258 291.806V278.628C372.258 281.952 370.242 284.994 367.006 286.474Z" fill="#D23C69"/>
<path d="M160.324 152.255C155.729 152.987 152.479 156.819 152.479 161.107V406.883H171.591V160.903C171.591 155.536 166.356 151.293 160.324 152.255Z" fill="#5B5D6E"/>
<path d="M372.409 165.333C369.707 163.771 366.374 163.599 363.492 164.873C351.766 170.055 327.708 178.747 298.327 178.747C276.864 178.747 261.814 175.008 245.88 171.049C228.075 166.626 207.99 161.642 176.07 161.211V160.902C176.07 153.788 169.774 148 162.035 148C154.296 148 148 153.788 148 160.903V406.882C148 409.156 150.005 411 152.479 411C154.953 411 156.959 409.157 156.959 406.882V160.903C156.959 158.329 159.236 156.236 162.035 156.236C164.835 156.236 167.112 158.329 167.112 160.903V406.882C167.112 409.156 169.117 411 171.591 411C174.065 411 176.071 409.157 176.071 406.882V301.221C206.738 301.636 225.44 306.277 243.545 310.775C260.069 314.88 275.678 318.758 298.329 318.758C331.689 318.758 358.866 307.975 369.003 303.339C373.774 301.156 376.739 296.738 376.739 291.807V172.549C376.737 169.597 375.119 166.9 372.409 165.333ZM367.778 291.806C367.778 293.591 366.718 295.184 365.011 295.965C355.442 300.342 329.788 310.522 298.328 310.522C276.865 310.522 261.815 306.783 245.88 302.824C228.075 298.401 207.99 293.417 176.07 292.985V169.447C206.737 169.862 225.438 174.502 243.544 179.001C260.068 183.106 275.677 186.984 298.328 186.984C329.485 186.984 354.961 177.781 367.373 172.296C367.434 172.27 367.516 172.233 367.641 172.305C367.78 172.386 367.78 172.491 367.78 172.549V291.806H367.778Z" fill="black"/>
<path d="M190.702 178.748C188.228 178.748 186.222 180.591 186.222 182.866V279.5C186.222 281.774 188.227 283.618 190.702 283.618C193.176 283.618 195.181 281.775 195.181 279.5V182.866C195.181 180.591 193.176 178.748 190.702 178.748Z" fill="black"/>
</svg>
